<svg width="43" height="38" viewBox="0 0 43 38" fill="none" xmlns="http://www.w3.org/2000/svg">
<path d="M15.5278 0C13.2957 0 11.4443 1.52148 10.9142 3.57734C10.8545 3.57734 10.8097 3.5625 10.75 3.5625C8.11476 3.5625 5.97222 5.69258 5.97222 8.3125C5.97222 8.66875 6.01701 9.01758 6.09913 9.35156C3.91927 10.2422 2.38889 12.3648 2.38889 14.8438C2.38889 15.7789 2.62778 16.6473 3.00851 17.434C1.21684 18.4582 0 20.3582 0 22.5625C0 25.034 1.52292 27.1566 3.68785 28.0473C3.62066 28.3887 3.58333 28.7375 3.58333 29.0938C3.58333 32.0477 5.98715 34.4375 8.95833 34.4375C9.26441 34.4375 9.56302 34.4004 9.85417 34.3484C10.5708 36.4637 12.5566 38 14.9306 38C17.9017 38 20.3056 35.6102 20.3056 32.6562V4.75C20.3056 2.13008 18.163 0 15.5278 0ZM43 22.5625C43 20.3582 41.7832 18.4582 39.9915 17.434C40.3797 16.6473 40.6111 15.7789 40.6111 14.8438C40.6111 12.3648 39.0807 10.2422 36.9009 9.35156C36.9755 9.01758 37.0278 8.66875 37.0278 8.3125C37.0278 5.69258 34.8852 3.5625 32.25 3.5625C32.1903 3.5625 32.138 3.57734 32.0858 3.57734C31.5557 1.52148 29.7043 0 27.4722 0C24.837 0 22.6944 2.12266 22.6944 4.75V32.6562C22.6944 35.6102 25.0983 38 28.0694 38C30.4434 38 32.4292 36.4637 33.1458 34.3484C33.437 34.4004 33.7356 34.4375 34.0417 34.4375C37.0128 34.4375 39.4167 32.0477 39.4167 29.0938C39.4167 28.7375 39.3793 28.3887 39.3121 28.0473C41.4771 27.1566 43 25.034 43 22.5625Z" fill="#ffbf54"/>
</svg>
