<svg width="51" height="51" viewBox="0 0 51 51" fill="none" xmlns="http://www.w3.org/2000/svg">
<path d="M48.6691 24.9223L39.0469 21.3164V10.5088C39.0469 9.01465 38.1205 7.67989 36.716 7.15196L26.7551 3.4166C25.9482 3.10782 25.0518 3.10782 24.235 3.4166L14.274 7.15196C12.8695 7.67989 11.9432 9.01465 11.9432 10.5088V21.3164L2.3209 24.9223C0.926367 25.4502 0 26.785 0 28.2791V39.2461C0 40.6008 0.766992 41.8459 1.98223 42.4535L11.9432 47.434C12.9492 47.942 14.1445 47.942 15.1506 47.434L25.5 42.2543L35.8494 47.434C36.8555 47.942 38.0508 47.942 39.0568 47.434L49.0178 42.4535C50.233 41.8459 51 40.6008 51 39.2461V28.2791C51 26.785 50.0736 25.4502 48.6691 24.9223ZM35.6602 21.3961L27.1934 24.5736V17.7803L35.6602 14.0947V21.3961ZM15.3398 10.3693L25.5 6.56426L35.6602 10.3693V10.4291L25.5 14.5529L15.3398 10.4291V10.3693ZM23.707 39.3656L15.2402 43.599V35.7199L23.707 31.8551V39.3656ZM23.707 28.2094L13.5469 32.3332L3.38672 28.2094V28.1496L13.5469 24.3445L23.707 28.1496V28.2094ZM47.6133 39.3656L39.1465 43.599V35.7199L47.6133 31.8551V39.3656ZM47.6133 28.2094L37.4531 32.3332L27.293 28.2094V28.1496L37.4531 24.3445L47.6133 28.1496V28.2094Z" fill="#37D5D6"/>
</svg>
