<svg width="48" height="42" viewBox="0 0 48 42" fill="none" xmlns="http://www.w3.org/2000/svg">
<path d="M44.01 24.7176L47.9494 7.65507C48.2338 6.42313 47.2826 5.25 45.9992 5.25H13.2673L12.5035 1.57418C12.3132 0.657973 11.4942 0 10.5441 0H2C0.895417 0 0 0.881426 0 1.96875V3.28125C0 4.36857 0.895417 5.25 2 5.25H7.82358L13.6776 33.4224C12.2771 34.2152 11.3333 35.7018 11.3333 37.4062C11.3333 39.9433 13.4227 42 16 42C18.5773 42 20.6667 39.9433 20.6667 37.4062C20.6667 36.1205 20.1294 34.9588 19.2647 34.125H36.7353C35.8706 34.9588 35.3333 36.1205 35.3333 37.4062C35.3333 39.9433 37.4227 42 40 42C42.5773 42 44.6667 39.9433 44.6667 37.4062C44.6667 35.5875 43.5927 34.0157 42.0351 33.2715L42.4948 31.2801C42.7793 30.0481 41.828 28.875 40.5446 28.875H18.1764L17.631 26.25H42.0598C42.9936 26.25 43.8031 25.6139 44.01 24.7176Z" fill="#ffbf54"/>
</svg>
