<svg width="53" height="42" viewBox="0 0 53 42" fill="none" xmlns="http://www.w3.org/2000/svg">
<path d="M51.675 28.875H50.35V20.0074C50.35 18.9656 49.9277 17.9648 49.1823 17.2266L40.9094 9.03164C40.1641 8.29336 39.1538 7.875 38.102 7.875H34.45V3.9375C34.45 1.76367 32.6695 0 30.475 0H3.975C1.78047 0 0 1.76367 0 3.9375V30.1875C0 32.3613 1.78047 34.125 3.975 34.125H5.3C5.3 38.4727 8.86094 42 13.25 42C17.6391 42 21.2 38.4727 21.2 34.125H31.8C31.8 38.4727 35.3609 42 39.75 42C44.1391 42 47.7 38.4727 47.7 34.125H51.675C52.4038 34.125 53 33.5344 53 32.8125V30.1875C53 29.4656 52.4038 28.875 51.675 28.875ZM13.25 38.0625C11.0555 38.0625 9.275 36.2988 9.275 34.125C9.275 31.9512 11.0555 30.1875 13.25 30.1875C15.4445 30.1875 17.225 31.9512 17.225 34.125C17.225 36.2988 15.4445 38.0625 13.25 38.0625ZM39.75 38.0625C37.5555 38.0625 35.775 36.2988 35.775 34.125C35.775 31.9512 37.5555 30.1875 39.75 30.1875C41.9445 30.1875 43.725 31.9512 43.725 34.125C43.725 36.2988 41.9445 38.0625 39.75 38.0625ZM46.375 21H34.45V11.8125H38.102L46.375 20.0074V21Z" fill="#37D5D6"/>
</svg>
