<svg width="39" height="39" viewBox="0 0 39 39" fill="none" xmlns="http://www.w3.org/2000/svg">
<path d="M35.1305 9.75H6.09375C5.42039 9.75 4.875 9.20461 4.875 8.53125C4.875 7.85789 5.42039 7.3125 6.09375 7.3125H35.3438C36.0171 7.3125 36.5625 6.76711 36.5625 6.09375C36.5625 4.07443 34.9256 2.4375 32.9062 2.4375H4.875C2.18232 2.4375 0 4.61982 0 7.3125V31.6875C0 34.3802 2.18232 36.5625 4.875 36.5625H35.1305C37.2648 36.5625 39 34.9225 39 32.9062V13.4062C39 11.39 37.2648 9.75 35.1305 9.75ZM31.6875 25.5938C30.3415 25.5938 29.25 24.5022 29.25 23.1562C29.25 21.8103 30.3415 20.7188 31.6875 20.7188C33.0335 20.7188 34.125 21.8103 34.125 23.1562C34.125 24.5022 33.0335 25.5938 31.6875 25.5938Z" fill="#ffbf54"/>
</svg>
