<svg width="196" height="52" viewBox="0 0 196 52" fill="none" xmlns="http://www.w3.org/2000/svg">
<path d="M37.2237 24.1516C33.8076 26.5879 28.456 26.9811 24.5023 26.9811C20.5482 26.9811 15.1967 26.5879 11.7805 24.1516C9.71168 27.875 6.64881 34.3331 7.24359 39.0487C8.12772 46.0593 16.4341 46.3121 24.5023 46.3121C32.5701 46.3121 40.8765 46.0593 41.7606 39.0487C42.3554 34.3331 39.2925 27.875 37.2237 24.1516Z" fill="#E6E2E6"/>
<path d="M24.5023 43.6832C16.4382 43.6832 8.13628 43.4305 7.24505 36.4304C7.14972 37.3403 7.13925 38.2218 7.24355 39.0487C8.12769 46.0594 16.434 46.3117 24.5023 46.3117C32.5701 46.3117 40.8765 46.0594 41.7606 39.0487C41.8649 38.2218 41.8548 37.3403 41.7591 36.43C40.8679 43.4305 32.566 43.6832 24.5023 43.6832Z" fill="#D8D1D7"/>
<path d="M46.8983 12.1625C46.9293 9.43013 44.4806 7.86074 44.4806 7.86074C45.0347 4.04421 42.06 1.05012 38.0128 1.34508C36.1462 1.48116 34.806 2.43445 33.9088 3.40905C37.9082 6.6095 40.5639 11.7453 40.5635 17.4299C40.5635 18.9601 40.2495 20.2472 39.7003 21.331C41.0114 21.879 42.4683 22.113 43.8361 21.5186C47.3072 20.0109 45.2866 16.1708 45.2866 16.1708C45.2866 16.1708 46.8684 14.7932 46.8983 12.1625Z" fill="#D8D1D7"/>
<path d="M8.44061 17.4299C8.44023 11.7453 11.096 6.6095 15.0953 3.40905C14.1981 2.43445 12.8579 1.48116 10.9913 1.34508C6.94412 1.05012 3.96948 4.04421 4.52351 7.86074C4.52351 7.86074 2.07485 9.43012 2.10588 12.1625C2.13579 14.7932 3.71751 16.1708 3.71751 16.1708C3.71751 16.1708 1.69728 20.0109 5.16801 21.5186C6.53552 22.113 7.99275 21.8794 9.30381 21.331C8.75463 20.2472 8.44061 18.9601 8.44061 17.4299Z" fill="#D8D1D7"/>
<path d="M43.8361 18.8901C42.7232 19.3735 41.5516 19.3088 40.4472 18.9724C40.3097 19.8498 40.0543 20.633 39.7007 21.3309C41.0117 21.879 42.4686 22.113 43.8365 21.5186C46.207 20.489 46.0156 18.3712 45.6563 17.132C45.3913 17.8142 44.847 18.4509 43.8361 18.8901Z" fill="#CAC0C9"/>
<path d="M5.16798 18.8901C4.15712 18.4509 3.61281 17.8142 3.34775 17.132C2.98849 18.3712 2.79746 20.489 5.16798 21.5186C6.53549 22.113 7.99272 21.879 9.30378 21.3309C8.94975 20.6326 8.69442 19.8498 8.55722 18.9724C7.4529 19.3088 6.28091 19.3735 5.16798 18.8901Z" fill="#CAC0C9"/>
<path d="M24.5022 0C33.1858 0 40.5643 7.95383 40.5635 17.4299C40.5628 25.9939 30.7734 26.9812 24.5022 26.9812C18.2307 26.9812 8.4413 25.9939 8.44055 17.4299C8.4398 7.95383 15.8183 0 24.5022 0V0Z" fill="#E6E2E6"/>
<path d="M38.196 25.9778C37.8599 25.3187 37.5306 24.7045 37.2237 24.1516C33.8075 26.5879 28.456 26.9811 24.5022 26.9811C20.5481 26.9811 15.1966 26.5879 11.7805 24.1516C11.4735 24.7045 11.1442 25.3191 10.8085 25.9778C14.1009 29.133 20.1485 29.6096 24.5022 29.6096C28.8556 29.6096 34.9032 29.133 38.196 25.9778Z" fill="#D8D1D7"/>
<path d="M16.3963 9.98822C15.5653 9.98822 14.9144 10.7968 14.9144 11.829C14.9144 12.8612 15.5653 13.6698 16.3963 13.6698C17.2274 13.6698 17.8786 12.8612 17.8786 11.829C17.8786 10.7968 17.2274 9.98822 16.3963 9.98822Z" fill="#433F43"/>
<path d="M32.6078 9.98822C31.7767 9.98822 31.1255 10.7968 31.1255 11.829C31.1255 12.8612 31.7767 13.6698 32.6078 13.6698C33.4388 13.6698 34.0897 12.8612 34.0897 11.829C34.0897 10.7968 33.4388 9.98822 32.6078 9.98822Z" fill="#433F43"/>
<path d="M28.1409 20.0453C27.865 19.7511 27.4029 19.7361 27.1087 20.012C26.7547 20.3436 26.4567 20.4797 26.2231 20.4158C25.9177 20.3324 25.6111 19.9384 25.3719 19.4965C25.8769 19.4449 26.3809 19.3182 26.8276 19.0056C27.6729 18.4146 28.0833 17.3136 28.0833 15.6396C28.0833 14.0018 27.7173 12.3154 27.0784 11.0133C26.3472 9.5228 25.3588 8.70148 24.2948 8.70148C23.2313 8.70148 22.2424 9.5228 21.5112 11.0133C20.8723 12.3154 20.506 14.0018 20.506 15.6396C20.506 17.3136 20.9168 18.4146 21.7617 19.0056C22.2088 19.3182 22.7135 19.4442 23.2189 19.4961C23.2185 19.4965 23.2185 19.4965 23.2182 19.4969C22.9453 20.0072 22.635 20.3421 22.3673 20.4158C22.1329 20.4801 21.8353 20.3444 21.4809 20.012C21.1863 19.7361 20.7243 19.7511 20.4488 20.0453C20.1729 20.3395 20.1878 20.8016 20.482 21.0775C21.417 21.9537 22.2338 21.9668 22.7546 21.8236C23.4301 21.6382 23.9356 21.1029 24.2948 20.5459C24.6537 21.1029 25.1595 21.6382 25.8347 21.8236C25.9808 21.864 26.1498 21.8917 26.3386 21.8917C26.8231 21.8917 27.4347 21.7081 28.1076 21.0775C28.4018 20.8016 28.4168 20.3395 28.1409 20.0453Z" fill="#433F43"/>
<path d="M13.3745 35.182C13.3745 35.182 13.6777 48.2649 17.7279 48.2698C21.3164 48.2739 21.9953 36.234 21.9953 36.234" fill="#E6E2E6"/>
<path d="M35.6295 35.182C35.6295 35.182 35.3264 48.2649 31.2762 48.2698C27.6877 48.2739 27.0088 36.234 27.0088 36.234" fill="#E6E2E6"/>
<path d="M22.0364 35.505C21.6334 35.4793 21.2891 35.7903 21.2663 36.1929C21.2644 36.2228 21.091 39.1967 20.4891 42.1198C20.39 42.602 20.2839 43.0555 20.1721 43.4806C19.5108 44.3318 18.7089 44.755 17.7395 44.7539C16.6961 44.7527 15.8497 44.358 15.1622 43.5123C15.0135 42.934 14.8766 42.2992 14.7536 41.6099C14.1865 38.4307 14.105 35.1974 14.1043 35.1652C14.0949 34.7619 13.7615 34.4411 13.3573 34.4523C12.9543 34.4617 12.6351 34.7959 12.6444 35.1992C12.6474 35.3349 12.7282 38.5634 13.3136 41.8521C13.6631 43.8181 14.1241 45.3961 14.6826 46.5427C15.4766 48.1719 16.501 48.9984 17.7272 48.9999H17.7302C19.6386 48.9999 21.0102 46.841 21.9228 42.4005C22.5445 39.3735 22.7172 36.4004 22.7243 36.2752C22.7471 35.8729 22.439 35.5278 22.0364 35.505Z" fill="#D8D1D7"/>
<path d="M35.6468 34.452C35.2449 34.4404 34.9092 34.7619 34.8999 35.1649C34.8991 35.1974 34.8176 38.4307 34.2505 41.6099C34.1275 42.2993 33.9907 42.934 33.8419 43.5124C33.1544 44.358 32.3081 44.7524 31.265 44.7539C30.2953 44.755 29.4934 44.3314 28.8321 43.4806C28.7203 43.0555 28.6141 42.6021 28.5151 42.1198C27.9132 39.1967 27.7397 36.2225 27.7379 36.1929C27.715 35.7903 27.3685 35.4797 26.9677 35.5051C26.5651 35.5279 26.2571 35.8726 26.2799 36.2752C26.287 36.4004 26.4597 39.3732 27.0818 42.4002C27.9939 46.8414 29.3652 49 31.2744 49H31.2774C32.5036 48.9985 33.5279 48.1719 34.3216 46.5427C34.8805 45.3961 35.341 43.8178 35.6906 41.8521C36.276 38.5635 36.3567 35.335 36.3597 35.1989C36.3691 34.7959 36.0498 34.4617 35.6468 34.452Z" fill="#D8D1D7"/>
<path d="M83.648 20.144L83.472 21.772L84.44 20.54L95 8.616H103.272L89.896 23.136L103.316 41H95.22L85.232 27.184L83.648 28.768V41H77.18V8.616H83.648V20.144ZM105.008 31.144C105.008 29.1787 105.463 27.4187 106.372 25.864C107.311 24.3093 108.616 23.092 110.288 22.212C111.96 21.3027 113.881 20.848 116.052 20.848C118.252 20.848 120.159 21.3027 121.772 22.212C123.385 23.092 124.617 24.3093 125.468 25.864C126.348 27.4187 126.788 29.1787 126.788 31.144C126.788 33.1093 126.348 34.884 125.468 36.468C124.617 38.0227 123.385 39.2547 121.772 40.164C120.159 41.0733 118.223 41.528 115.964 41.528C113.852 41.528 111.96 41.1173 110.288 40.296C108.645 39.4747 107.355 38.2867 106.416 36.732C105.477 35.1773 105.008 33.3147 105.008 31.144ZM111.212 31.188C111.212 32.7133 111.652 33.9893 112.532 35.016C113.412 36.0133 114.527 36.512 115.876 36.512C117.313 36.512 118.457 36.0133 119.308 35.016C120.159 33.9893 120.584 32.7133 120.584 31.188C120.584 29.6627 120.159 28.4013 119.308 27.404C118.457 26.3773 117.313 25.864 115.876 25.864C114.527 25.864 113.412 26.3773 112.532 27.404C111.652 28.4013 111.212 29.6627 111.212 31.188ZM139.737 41.528C137.947 41.528 136.319 41.176 134.853 40.472C133.415 39.7387 132.271 38.624 131.421 37.128C130.57 35.632 130.145 33.7253 130.145 31.408C130.145 29.2373 130.585 27.36 131.465 25.776C132.345 24.192 133.503 22.9747 134.941 22.124C136.378 21.244 137.903 20.804 139.517 20.804C141.423 20.804 142.861 21.112 143.829 21.728C144.826 22.344 145.618 23.0187 146.205 23.752L146.601 21.772H152.321V41H146.161V38.624C145.867 38.9173 145.427 39.2987 144.841 39.768C144.283 40.2373 143.579 40.648 142.729 41C141.878 41.352 140.881 41.528 139.737 41.528ZM141.497 36.512C143.638 36.512 145.193 35.544 146.161 33.608V28.9C145.809 27.9613 145.193 27.2133 144.313 26.656C143.462 26.0987 142.45 25.82 141.277 25.82C139.957 25.82 138.813 26.3187 137.845 27.316C136.877 28.284 136.393 29.5453 136.393 31.1C136.393 32.1267 136.627 33.0507 137.097 33.872C137.566 34.6933 138.182 35.3387 138.945 35.808C139.737 36.2773 140.587 36.512 141.497 36.512ZM158.668 6.284H164.828V41H158.668V6.284ZM179.268 41.528C177.479 41.528 175.851 41.176 174.384 40.472C172.947 39.7387 171.803 38.624 170.952 37.128C170.101 35.632 169.676 33.7253 169.676 31.408C169.676 29.2373 170.116 27.36 170.996 25.776C171.876 24.192 173.035 22.9747 174.472 22.124C175.909 21.244 177.435 20.804 179.048 20.804C180.955 20.804 182.392 21.112 183.36 21.728C184.357 22.344 185.149 23.0187 185.736 23.752L186.132 21.772H191.852V41H185.692V38.624C185.399 38.9173 184.959 39.2987 184.372 39.768C183.815 40.2373 183.111 40.648 182.26 41C181.409 41.352 180.412 41.528 179.268 41.528ZM181.028 36.512C183.169 36.512 184.724 35.544 185.692 33.608V28.9C185.34 27.9613 184.724 27.2133 183.844 26.656C182.993 26.0987 181.981 25.82 180.808 25.82C179.488 25.82 178.344 26.3187 177.376 27.316C176.408 28.284 175.924 29.5453 175.924 31.1C175.924 32.1267 176.159 33.0507 176.628 33.872C177.097 34.6933 177.713 35.3387 178.476 35.808C179.268 36.2773 180.119 36.512 181.028 36.512Z" fill="white"/>
</svg>
