<svg width="206" height="58" viewBox="0 0 206 58" fill="none" xmlns="http://www.w3.org/2000/svg">
<path d="M83.616 22.248L83.424 24.024L84.48 22.68L96 9.672H105.024L90.432 25.512L105.072 45H96.24L85.344 29.928L83.616 31.656V45H76.56V9.672H83.616V22.248ZM106.918 34.248C106.918 32.104 107.414 30.184 108.406 28.488C109.43 26.792 110.854 25.464 112.678 24.504C114.502 23.512 116.598 23.016 118.966 23.016C121.366 23.016 123.446 23.512 125.206 24.504C126.966 25.464 128.31 26.792 129.238 28.488C130.198 30.184 130.678 32.104 130.678 34.248C130.678 36.392 130.198 38.328 129.238 40.056C128.31 41.752 126.966 43.096 125.206 44.088C123.446 45.08 121.334 45.576 118.87 45.576C116.566 45.576 114.502 45.128 112.678 44.232C110.886 43.336 109.478 42.04 108.454 40.344C107.43 38.648 106.918 36.616 106.918 34.248ZM113.686 34.296C113.686 35.96 114.166 37.352 115.126 38.472C116.086 39.56 117.302 40.104 118.774 40.104C120.342 40.104 121.59 39.56 122.518 38.472C123.446 37.352 123.91 35.96 123.91 34.296C123.91 32.632 123.446 31.256 122.518 30.168C121.59 29.048 120.342 28.488 118.774 28.488C117.302 28.488 116.086 29.048 115.126 30.168C114.166 31.256 113.686 32.632 113.686 34.296ZM144.804 45.576C142.852 45.576 141.076 45.192 139.476 44.424C137.908 43.624 136.66 42.408 135.732 40.776C134.804 39.144 134.34 37.064 134.34 34.536C134.34 32.168 134.82 30.12 135.78 28.392C136.74 26.664 138.004 25.336 139.572 24.408C141.14 23.448 142.804 22.968 144.564 22.968C146.644 22.968 148.212 23.304 149.268 23.976C150.356 24.648 151.22 25.384 151.86 26.184L152.292 24.024H158.532V45H151.812V42.408C151.492 42.728 151.012 43.144 150.372 43.656C149.764 44.168 148.996 44.616 148.068 45C147.14 45.384 146.052 45.576 144.804 45.576ZM146.724 40.104C149.06 40.104 150.756 39.048 151.812 36.936V31.8C151.428 30.776 150.756 29.96 149.796 29.352C148.868 28.744 147.764 28.44 146.484 28.44C145.044 28.44 143.796 28.984 142.74 30.072C141.684 31.128 141.156 32.504 141.156 34.2C141.156 35.32 141.412 36.328 141.924 37.224C142.436 38.12 143.108 38.824 143.94 39.336C144.804 39.848 145.732 40.104 146.724 40.104ZM165.456 7.128H172.176V45H165.456V7.128ZM187.929 45.576C185.977 45.576 184.201 45.192 182.601 44.424C181.033 43.624 179.785 42.408 178.857 40.776C177.929 39.144 177.465 37.064 177.465 34.536C177.465 32.168 177.945 30.12 178.905 28.392C179.865 26.664 181.129 25.336 182.697 24.408C184.265 23.448 185.929 22.968 187.689 22.968C189.769 22.968 191.337 23.304 192.393 23.976C193.481 24.648 194.345 25.384 194.985 26.184L195.417 24.024H201.657V45H194.937V42.408C194.617 42.728 194.137 43.144 193.497 43.656C192.889 44.168 192.121 44.616 191.193 45C190.265 45.384 189.177 45.576 187.929 45.576ZM189.849 40.104C192.185 40.104 193.881 39.048 194.937 36.936V31.8C194.553 30.776 193.881 29.96 192.921 29.352C191.993 28.744 190.889 28.44 189.609 28.44C188.169 28.44 186.921 28.984 185.865 30.072C184.809 31.128 184.281 32.504 184.281 34.2C184.281 35.32 184.537 36.328 185.049 37.224C185.561 38.12 186.233 38.824 187.065 39.336C187.929 39.848 188.857 40.104 189.849 40.104Z" fill="#433F43"/>
<path d="M44.0607 28.5875C40.0171 31.4713 33.6826 31.9368 29.0027 31.9368C24.3223 31.9368 17.9879 31.4713 13.9442 28.5875C11.4954 32.9949 7.86998 40.6391 8.574 46.2209C9.62053 54.5192 19.4525 54.8183 29.0027 54.8183C38.5524 54.8183 48.3844 54.5192 49.4309 46.2209C50.1349 40.6391 46.5095 32.9949 44.0607 28.5875V28.5875Z" fill="#E6E2E6"/>
<path d="M29.0028 51.7067C19.4575 51.7067 9.63077 51.4076 8.57584 43.1217C8.463 44.1987 8.45061 45.2421 8.57407 46.221C9.6206 54.5192 19.4526 54.8179 29.0028 54.8179C38.5524 54.8179 48.3845 54.5192 49.431 46.221C49.5544 45.2421 49.5425 44.1987 49.4292 43.1212C48.3743 51.4076 38.5476 51.7067 29.0028 51.7067V51.7067Z" fill="#D8D1D7"/>
<path d="M55.5123 14.3964C55.549 11.1622 52.6506 9.30453 52.6506 9.30453C53.3064 4.787 49.7854 1.24298 44.9948 1.59211C42.7854 1.75318 41.199 2.88157 40.137 4.03518C44.8709 7.82347 48.0145 13.9026 48.0141 20.6313C48.0141 22.4425 47.6423 23.966 46.9923 25.2489C48.5442 25.8976 50.2686 26.1746 51.8877 25.471C55.9964 23.6864 53.6047 19.141 53.6047 19.141C53.6047 19.141 55.4769 17.5103 55.5123 14.3964V14.3964Z" fill="#D8D1D7"/>
<path d="M9.99096 20.6313C9.99052 13.9026 13.1341 7.82346 17.868 4.03518C16.806 2.88157 15.2196 1.75318 13.0102 1.59211C8.21961 1.24298 4.6986 4.787 5.3544 9.30453C5.3544 9.30453 2.45599 11.1622 2.49272 14.3964C2.52812 17.5103 4.40036 19.141 4.40036 19.141C4.40036 19.141 2.00906 23.6864 6.11727 25.471C7.73596 26.1746 9.46084 25.898 11.0127 25.2489C10.3627 23.966 9.99096 22.4425 9.99096 20.6313Z" fill="#D8D1D7"/>
<path d="M51.8877 22.3597C50.5703 22.9319 49.1835 22.8553 47.8764 22.4571C47.7135 23.4956 47.4113 24.4227 46.9927 25.2488C48.5445 25.8975 50.269 26.1746 51.8881 25.471C54.694 24.2523 54.4675 21.7455 54.0422 20.2786C53.7285 21.0862 53.0842 21.8398 51.8877 22.3597V22.3597Z" fill="#CAC0C9"/>
<path d="M6.11721 22.3597C4.92067 21.8398 4.27639 21.0862 3.96265 20.2786C3.5374 21.7455 3.31128 24.2523 6.11721 25.471C7.73589 26.1746 9.46078 25.8975 11.0126 25.2488C10.5936 24.4222 10.2914 23.4956 10.129 22.4571C8.8218 22.8553 7.43454 22.9319 6.11721 22.3597Z" fill="#CAC0C9"/>
<path d="M29.0027 0C39.2812 0 48.0149 9.41473 48.014 20.6313C48.0131 30.7682 36.4257 31.9369 29.0027 31.9369C21.5792 31.9369 9.99179 30.7682 9.99091 20.6313C9.99002 9.41473 18.7237 0 29.0027 0V0Z" fill="#E6E2E6"/>
<path d="M45.2117 30.7492C44.8139 29.969 44.424 29.242 44.0607 28.5875C40.0171 31.4713 33.6826 31.9368 29.0027 31.9368C24.3223 31.9368 17.9879 31.4713 13.9443 28.5875C13.581 29.242 13.1911 29.9695 12.7938 30.7492C16.6909 34.4839 23.8493 35.0481 29.0027 35.0481C34.1557 35.0481 41.3141 34.4839 45.2117 30.7492V30.7492Z" fill="#D8D1D7"/>
<path d="M19.4078 11.8228C18.4241 11.8228 17.6537 12.78 17.6537 14.0017C17.6537 15.2235 18.4241 16.1806 19.4078 16.1806C20.3915 16.1806 21.1624 15.2235 21.1624 14.0017C21.1624 12.78 20.3915 11.8228 19.4078 11.8228Z" fill="#433F43"/>
<path d="M38.597 11.8228C37.6133 11.8228 36.8425 12.78 36.8425 14.0017C36.8425 15.2235 37.6133 16.1806 38.597 16.1806C39.5807 16.1806 40.3511 15.2235 40.3511 14.0017C40.3511 12.78 39.5807 11.8228 38.597 11.8228Z" fill="#433F43"/>
<path d="M33.3096 23.7271C32.983 23.3789 32.4361 23.3612 32.0878 23.6877C31.6688 24.0802 31.3161 24.2413 31.0395 24.1656C30.678 24.067 30.3151 23.6006 30.0319 23.0775C30.6298 23.0164 31.2263 22.8664 31.755 22.4965C32.7556 21.7969 33.2414 20.4937 33.2414 18.5122C33.2414 16.5736 32.8082 14.5774 32.052 13.0362C31.1864 11.2719 30.0164 10.2997 28.7571 10.2997C27.4981 10.2997 26.3277 11.2719 25.4622 13.0362C24.7059 14.5774 24.2723 16.5736 24.2723 18.5122C24.2723 20.4937 24.7586 21.7969 25.7587 22.4965C26.2879 22.8664 26.8853 23.0156 27.4835 23.0771C27.4831 23.0775 27.4831 23.0775 27.4827 23.078C27.1596 23.682 26.7924 24.0785 26.4755 24.1656C26.1981 24.2417 25.8458 24.0811 25.4263 23.6877C25.0776 23.3612 24.5307 23.3789 24.2046 23.7271C23.878 24.0754 23.8957 24.6223 24.244 24.9489C25.3507 25.9861 26.3175 26.0016 26.934 25.8321C27.7336 25.6126 28.3318 24.979 28.7571 24.3196C29.1819 24.979 29.7806 25.6126 30.5798 25.8321C30.7528 25.8799 30.9528 25.9126 31.1763 25.9126C31.7497 25.9126 32.4737 25.6954 33.2702 24.9489C33.6184 24.6223 33.6361 24.0754 33.3096 23.7271Z" fill="#433F43"/>
<path d="M15.8311 41.644C15.8311 41.644 16.1899 57.1299 20.984 57.1357C25.2316 57.1406 26.0352 42.8893 26.0352 42.8893" fill="#E6E2E6"/>
<path d="M42.1738 41.644C42.1738 41.644 41.8149 57.1299 37.0208 57.1357C32.7732 57.1406 31.9696 42.8893 31.9696 42.8893" fill="#E6E2E6"/>
<path d="M26.0839 42.0264C25.6069 41.9959 25.1993 42.364 25.1723 42.8406C25.1701 42.876 24.9648 46.3961 24.2524 49.8561C24.1351 50.4269 24.0094 50.9637 23.8771 51.4668C23.0943 52.4744 22.1452 52.9753 20.9978 52.974C19.7627 52.9726 18.7609 52.5054 17.9471 51.5044C17.771 50.8199 17.609 50.0685 17.4635 49.2525C16.7922 45.4894 16.6957 41.6622 16.6948 41.6242C16.6838 41.1467 16.2891 40.767 15.8107 40.7803C15.3337 40.7914 14.9558 41.187 14.9669 41.6644C14.9704 41.8251 15.066 45.6465 15.7589 49.5392C16.1727 51.8664 16.7183 53.7342 17.3794 55.0914C18.3193 57.0198 19.5317 57.9982 20.9831 57.9999H20.9867C23.2457 57.9999 24.8692 55.4445 25.9494 50.1884C26.6853 46.6054 26.8897 43.0862 26.8981 42.938C26.9251 42.4618 26.5605 42.0534 26.0839 42.0264V42.0264Z" fill="#D8D1D7"/>
<path d="M42.1942 40.7798C41.7185 40.7661 41.3211 41.1467 41.31 41.6237C41.3092 41.6622 41.2127 45.4894 40.5414 49.2525C40.3958 50.0685 40.2339 50.8198 40.0577 51.5044C39.244 52.5053 38.2421 52.9722 37.0076 52.974C35.8597 52.9753 34.9105 52.4739 34.1277 51.4668C33.9954 50.9637 33.8698 50.4269 33.7525 49.8561C33.0401 46.3961 32.8347 42.8755 32.8325 42.8406C32.8055 42.364 32.3953 41.9963 31.921 42.0264C31.4444 42.0534 31.0798 42.4614 31.1068 42.9379C31.1152 43.0862 31.3196 46.605 32.0559 50.1879C33.1356 55.4449 34.7587 57.9999 37.0186 57.9999H37.0222C38.4736 57.9982 39.686 57.0198 40.6255 55.0913C41.287 53.7342 41.8322 51.8659 42.2459 49.5392C42.9389 45.6465 43.0345 41.825 43.038 41.664C43.0491 41.1869 42.6712 40.7913 42.1942 40.7798Z" fill="#D8D1D7"/>
</svg>
